# xmcd
#
# Track frame offsets: 
#        150
#        22006
#        40971
#        63105
#        85169
#        104489
#        128532
#        142648
#        162302
#        185620
#        205219
#        225528
#        242730
#        262301
#
# Disc length: 3756 seconds
#
# Revision: 0
# Processed by: cddbd v1.5.2PL0 Copyright (c) Steve Scherf et al.
# Submitted via: ExactAudioCopy v0.95b3
#
DISCID=bc0eaa0e
DTITLE=Annie Lennox  - The Annie Lennox Collection - CD 1
DYEAR=1900
DGENRE=
TTITLE0=Little Bird
TTITLE1=Walking On Broken Glass
TTITLE2=Why
TTITLE3=No More I Love You's
TTITLE4=Precious
TTITLE5=A Whiter Shade Of Pale
TTITLE6=A Thousand Beautiful Things
TTITLE7=Sing (Full Length)
TTITLE8=Pavement Cracks
TTITLE9=Love Song For A Vampire
TTITLE10=Cold
TTITLE11=Dark Road
TTITLE12=Pattern Of My Life
TTITLE13=Shining Light
EXTD=
EXTT0=
EXTT1=
EXTT2=
EXTT3=
EXTT4=
EXTT5=
EXTT6=
EXTT7=
EXTT8=
EXTT9=
EXTT10=
EXTT11=
EXTT12=
EXTT13=
PLAYORDER=
